<svg xmlns="http://www.w3.org/2000/svg" width="840" height="240"><defs><clipPath id="clip-path"><path id="長方形_2421" data-name="長方形 2421" transform="translate(299 397)" fill="#fff" d="M0 0h654v240H0z"/></clipPath><clipPath id="clip-path-2"><path id="パス_305" data-name="パス 305" d="M0 0h186v190H0z" transform="translate(113 431)" fill="#fff"/></clipPath></defs><g id="kv_text" transform="translate(-113 -397)"><g id="マスクグループ_44" data-name="マスクグループ 44" clip-path="url(#clip-path)"><path id="パス_307" data-name="パス 307" d="M6.84-64.26h44.37v9.72H18.09v16.83h29.07v9.18H18.09V0H6.84zm52.65 0h11.25v37.44q0 3.24.315 6.57a15.009 15.009 0 001.8 5.985 11.475 11.475 0 004.5 4.365q3.015 1.71 8.505 1.71t8.5-1.71a11.475 11.475 0 004.5-4.365 15.009 15.009 0 001.8-5.985q.315-3.33.315-6.57v-37.44h11.25v41.13a28.249 28.249 0 01-1.89 10.8 20.787 20.787 0 01-5.355 7.695A22.338 22.338 0 0196.66 0a35.855 35.855 0 01-10.8 1.53A35.855 35.855 0 0175.06 0a22.338 22.338 0 01-8.325-4.635 20.787 20.787 0 01-5.355-7.695 28.25 28.25 0 01-1.89-10.8zm59.58 0h52.02v9.72h-20.43V0h-11.25v-54.54h-20.34zm58.77 0h11.25v37.44q0 3.24.315 6.57a15.009 15.009 0 001.8 5.985 11.475 11.475 0 004.5 4.365q3.015 1.71 8.505 1.71t8.5-1.71a11.475 11.475 0 004.5-4.365 15.009 15.009 0 001.8-5.985q.315-3.33.315-6.57v-37.44h11.25v41.13a28.25 28.25 0 01-1.89 10.8 20.787 20.787 0 01-5.355 7.695A22.338 22.338 0 01215.01 0a35.855 35.855 0 01-10.8 1.53A35.855 35.855 0 01193.41 0a22.338 22.338 0 01-8.325-4.635 20.787 20.787 0 01-5.355-7.695 28.25 28.25 0 01-1.89-10.8zm65.7 0h30.69q10.62 0 15.93 4.59t5.31 12.78a18.66 18.66 0 01-1.35 7.605 16.6 16.6 0 01-3.15 4.86 12.3 12.3 0 01-3.555 2.655q-1.755.81-2.565 1.08v.18a11.479 11.479 0 013.1.9 9.162 9.162 0 013.105 2.3 12.5 12.5 0 012.385 4.1 18.1 18.1 0 01.945 6.3 57.011 57.011 0 00.855 10.305Q296.1-1.98 297.9 0h-12.06a10.5 10.5 0 01-1.485-4.59q-.225-2.52-.225-4.86a46.326 46.326 0 00-.54-7.605 13.26 13.26 0 00-1.98-5.31 8.378 8.378 0 00-3.915-3.1 17.275 17.275 0 00-6.345-.99h-16.56V0h-11.25zm11.25 29.25h18.45q5.4 0 8.19-2.565t2.79-7.695a11.9 11.9 0 00-.9-4.995 7.276 7.276 0 00-2.475-3.015 9.1 9.1 0 00-3.6-1.44 23.87 23.87 0 00-4.185-.36h-18.27zm52.11-29.25h46.26v9.72h-35.01v16.83h32.4v9.18h-32.4v18.81h35.64V0H306.9zm109.08 7.65a18.012 18.012 0 00-8.865 2.07 17.382 17.382 0 00-6.075 5.535 24.97 24.97 0 00-3.465 7.875 36.267 36.267 0 00-1.125 9 36.267 36.267 0 001.125 9 24.97 24.97 0 003.465 7.875 17.382 17.382 0 006.075 5.535 18.012 18.012 0 008.865 2.07 18.012 18.012 0 008.865-2.07 17.382 17.382 0 006.075-5.535 24.969 24.969 0 003.465-7.875 36.267 36.267 0 001.125-9 36.267 36.267 0 00-1.125-9 24.969 24.969 0 00-3.465-7.875 17.382 17.382 0 00-6.075-5.535 18.012 18.012 0 00-8.865-2.07zm0-9.18a29.874 29.874 0 0112.915 2.7 28.917 28.917 0 019.675 7.29 32.411 32.411 0 016.075 10.71 39.4 39.4 0 012.115 12.96 39.676 39.676 0 01-2.115 13.05 32.411 32.411 0 01-6.075 10.71 28.409 28.409 0 01-9.675 7.245A30.3 30.3 0 01415.98 1.53a30.3 30.3 0 01-12.915-2.655 28.409 28.409 0 01-9.675-7.245 32.411 32.411 0 01-6.075-10.71 39.676 39.676 0 01-2.115-13.05 39.4 39.4 0 012.115-12.96 32.411 32.411 0 016.075-10.71 28.917 28.917 0 019.675-7.29 29.874 29.874 0 0112.915-2.7zm41.04 1.53h44.37v9.72h-33.12v16.83h29.07v9.18h-29.07V0h-11.25zm72.27 0h52.02v9.72h-20.43V0h-11.25v-54.54h-20.34zm59.49 0h46.26v9.72h-35.01v16.83h32.4v9.18h-32.4v18.81h35.64V0h-46.89zm73.89 0h11.97L699.39 0h-12.06l-6.03-17.01h-25.65L649.62 0h-11.61zm-3.96 38.7h19.62l-9.63-27.63h-.27zM24.03 30.74H36L60.75 95H48.69l-6.03-17.01H17.01L10.98 95H-.63zm-3.96 38.7h19.62l-9.63-27.63h-.27zm46.35-38.7H78.3l29.34 47.34h.18V30.74h10.71V95h-11.88L77.4 47.75h-.27V95H66.42zm65.43 0h26.64a29.978 29.978 0 0112.78 2.52 23.747 23.747 0 018.82 6.885 29.419 29.419 0 015.085 10.215 47.83 47.83 0 010 25.02 29.419 29.419 0 01-5.085 10.22 23.747 23.747 0 01-8.82 6.885A29.978 29.978 0 01158.49 95h-26.64zm11.25 55.08h11.07a28.073 28.073 0 0010.755-1.755 15.736 15.736 0 006.57-4.86 17.545 17.545 0 003.24-7.29 48.271 48.271 0 000-18.09 17.545 17.545 0 00-3.24-7.29 15.736 15.736 0 00-6.57-4.86 28.073 28.073 0 00-10.755-1.755H143.1zm122.13-34.65a22.78 22.78 0 00-1.98-5.13 14.192 14.192 0 00-3.24-4.05 14.4 14.4 0 00-4.635-2.655 18.362 18.362 0 00-6.165-.945 18.012 18.012 0 00-8.865 2.07 17.382 17.382 0 00-6.075 5.535 24.97 24.97 0 00-3.47 7.875 36.562 36.562 0 000 18 24.97 24.97 0 003.465 7.875 17.382 17.382 0 006.075 5.535 18.012 18.012 0 008.865 2.07 15.99 15.99 0 006.66-1.305 14.827 14.827 0 004.95-3.6 16.94 16.94 0 003.24-5.355 25.641 25.641 0 001.53-6.57h10.98a30.457 30.457 0 01-2.465 10.53 25.822 25.822 0 01-5.715 8.235 25.251 25.251 0 01-8.46 5.355 29.314 29.314 0 01-10.71 1.89 30.3 30.3 0 01-12.915-2.655 28.409 28.409 0 01-9.675-7.245 32.411 32.411 0 01-6.075-10.71 41.04 41.04 0 010-26.01 32.411 32.411 0 016.07-10.71 28.917 28.917 0 019.675-7.29 29.874 29.874 0 0112.915-2.7 34.03 34.03 0 0110.17 1.485 26.293 26.293 0 018.415 4.32 22.436 22.436 0 015.9 6.885 23.952 23.952 0 012.79 9.27zm20.88-20.43h11.25v37.44q0 3.24.315 6.57a15.009 15.009 0 001.8 5.985 11.476 11.476 0 004.5 4.365q3.015 1.71 8.505 1.71t8.505-1.71a11.475 11.475 0 004.5-4.365 15.009 15.009 0 001.8-5.985q.315-3.33.315-6.57V30.74h11.25v41.13a28.25 28.25 0 01-1.89 10.8 20.787 20.787 0 01-5.355 7.695A22.338 22.338 0 01323.28 95a38.883 38.883 0 01-21.6 0 22.338 22.338 0 01-8.325-4.635A20.787 20.787 0 01288 82.67a28.249 28.249 0 01-1.89-10.8zm65.7 0h11.25v54.54h32.67V95h-43.92zm37.26 0h52.02v9.72h-20.43V95h-11.25V40.46h-20.34zm58.77 0h11.25v37.44q0 3.24.315 6.57a15.009 15.009 0 001.8 5.985 11.475 11.475 0 004.5 4.365q3.015 1.71 8.5 1.71t8.505-1.71a11.475 11.475 0 004.5-4.365 15.009 15.009 0 001.8-5.985q.315-3.33.315-6.57V30.74h11.25v41.13a28.25 28.25 0 01-1.89 10.8 20.787 20.787 0 01-5.355 7.695A22.338 22.338 0 01485.01 95a38.883 38.883 0 01-21.6 0 22.338 22.338 0 01-8.325-4.635 20.787 20.787 0 01-5.355-7.695 28.249 28.249 0 01-1.89-10.8zm65.7 0h30.69q10.62 0 15.93 4.59t5.31 12.78a18.659 18.659 0 01-1.35 7.605 16.6 16.6 0 01-3.15 4.86 12.3 12.3 0 01-3.555 2.655q-1.755.81-2.565 1.08v.18a11.479 11.479 0 013.1.9 9.163 9.163 0 013.1 2.295 12.5 12.5 0 012.385 4.1 18.1 18.1 0 01.945 6.3 57.011 57.011 0 00.855 10.305q.865 4.63 2.665 6.61h-12.06a10.5 10.5 0 01-1.485-4.59q-.225-2.52-.225-4.86a46.33 46.33 0 00-.54-7.605 13.26 13.26 0 00-1.98-5.31 8.378 8.378 0 00-3.91-3.105 17.275 17.275 0 00-6.345-.99H524.79V95h-11.25zm11.25 29.25h18.45q5.4 0 8.19-2.565t2.79-7.695a11.9 11.9 0 00-.9-4.995 7.276 7.276 0 00-2.475-3.015 9.1 9.1 0 00-3.6-1.44 23.869 23.869 0 00-4.185-.36h-18.27zm52.11-29.25h46.26v9.72h-35.01v16.83h32.4v9.18h-32.4v18.81h35.64V95H576.9z" transform="translate(142 519)" fill="#fff"/></g><g id="マスクグループ_58" data-name="マスクグループ 58" clip-path="url(#clip-path-2)"><path id="パス_306" data-name="パス 306" d="M6.84-64.26h44.37v9.72H18.09v16.83h29.07v9.18H18.09V0H6.84zm52.65 0h11.25v37.44q0 3.24.315 6.57a15.009 15.009 0 001.8 5.985 11.475 11.475 0 004.5 4.365q3.015 1.71 8.505 1.71t8.5-1.71a11.475 11.475 0 004.5-4.365 15.009 15.009 0 001.8-5.985q.315-3.33.315-6.57v-37.44h11.25v41.13a28.249 28.249 0 01-1.89 10.8 20.787 20.787 0 01-5.355 7.695A22.338 22.338 0 0196.66 0a35.855 35.855 0 01-10.8 1.53A35.855 35.855 0 0175.06 0a22.338 22.338 0 01-8.325-4.635 20.787 20.787 0 01-5.355-7.695 28.25 28.25 0 01-1.89-10.8zm59.58 0h52.02v9.72h-20.43V0h-11.25v-54.54h-20.34zm58.77 0h11.25v37.44q0 3.24.315 6.57a15.009 15.009 0 001.8 5.985 11.475 11.475 0 004.5 4.365q3.015 1.71 8.505 1.71t8.5-1.71a11.475 11.475 0 004.5-4.365 15.009 15.009 0 001.8-5.985q.315-3.33.315-6.57v-37.44h11.25v41.13a28.25 28.25 0 01-1.89 10.8 20.787 20.787 0 01-5.355 7.695A22.338 22.338 0 01215.01 0a35.855 35.855 0 01-10.8 1.53A35.855 35.855 0 01193.41 0a22.338 22.338 0 01-8.325-4.635 20.787 20.787 0 01-5.355-7.695 28.25 28.25 0 01-1.89-10.8zm65.7 0h30.69q10.62 0 15.93 4.59t5.31 12.78a18.66 18.66 0 01-1.35 7.605 16.6 16.6 0 01-3.15 4.86 12.3 12.3 0 01-3.555 2.655q-1.755.81-2.565 1.08v.18a11.479 11.479 0 013.1.9 9.162 9.162 0 013.105 2.3 12.5 12.5 0 012.385 4.1 18.1 18.1 0 01.945 6.3 57.011 57.011 0 00.855 10.305Q296.1-1.98 297.9 0h-12.06a10.5 10.5 0 01-1.485-4.59q-.225-2.52-.225-4.86a46.326 46.326 0 00-.54-7.605 13.26 13.26 0 00-1.98-5.31 8.378 8.378 0 00-3.915-3.1 17.275 17.275 0 00-6.345-.99h-16.56V0h-11.25zm11.25 29.25h18.45q5.4 0 8.19-2.565t2.79-7.695a11.9 11.9 0 00-.9-4.995 7.276 7.276 0 00-2.475-3.015 9.1 9.1 0 00-3.6-1.44 23.87 23.87 0 00-4.185-.36h-18.27zm52.11-29.25h46.26v9.72h-35.01v16.83h32.4v9.18h-32.4v18.81h35.64V0H306.9zm109.08 7.65a18.012 18.012 0 00-8.865 2.07 17.382 17.382 0 00-6.075 5.535 24.97 24.97 0 00-3.465 7.875 36.267 36.267 0 00-1.125 9 36.267 36.267 0 001.125 9 24.97 24.97 0 003.465 7.875 17.382 17.382 0 006.075 5.535 18.012 18.012 0 008.865 2.07 18.012 18.012 0 008.865-2.07 17.382 17.382 0 006.075-5.535 24.969 24.969 0 003.465-7.875 36.267 36.267 0 001.125-9 36.267 36.267 0 00-1.125-9 24.969 24.969 0 00-3.465-7.875 17.382 17.382 0 00-6.075-5.535 18.012 18.012 0 00-8.865-2.07zm0-9.18a29.874 29.874 0 0112.915 2.7 28.917 28.917 0 019.675 7.29 32.411 32.411 0 016.075 10.71 39.4 39.4 0 012.115 12.96 39.676 39.676 0 01-2.115 13.05 32.411 32.411 0 01-6.075 10.71 28.409 28.409 0 01-9.675 7.245A30.3 30.3 0 01415.98 1.53a30.3 30.3 0 01-12.915-2.655 28.409 28.409 0 01-9.675-7.245 32.411 32.411 0 01-6.075-10.71 39.676 39.676 0 01-2.115-13.05 39.4 39.4 0 012.115-12.96 32.411 32.411 0 016.075-10.71 28.917 28.917 0 019.675-7.29 29.874 29.874 0 0112.915-2.7zm41.04 1.53h44.37v9.72h-33.12v16.83h29.07v9.18h-29.07V0h-11.25zm72.27 0h52.02v9.72h-20.43V0h-11.25v-54.54h-20.34zm59.49 0h46.26v9.72h-35.01v16.83h32.4v9.18h-32.4v18.81h35.64V0h-46.89zm73.89 0h11.97L699.39 0h-12.06l-6.03-17.01h-25.65L649.62 0h-11.61zm-3.96 38.7h19.62l-9.63-27.63h-.27zM24.03 30.74H36L60.75 95H48.69l-6.03-17.01H17.01L10.98 95H-.63zm-3.96 38.7h19.62l-9.63-27.63h-.27zm46.35-38.7H78.3l29.34 47.34h.18V30.74h10.71V95h-11.88L77.4 47.75h-.27V95H66.42zm65.43 0h26.64a29.978 29.978 0 0112.78 2.52 23.747 23.747 0 018.82 6.885 29.419 29.419 0 015.085 10.215 47.83 47.83 0 010 25.02 29.419 29.419 0 01-5.085 10.22 23.747 23.747 0 01-8.82 6.885A29.978 29.978 0 01158.49 95h-26.64zm11.25 55.08h11.07a28.073 28.073 0 0010.755-1.755 15.736 15.736 0 006.57-4.86 17.545 17.545 0 003.24-7.29 48.271 48.271 0 000-18.09 17.545 17.545 0 00-3.24-7.29 15.736 15.736 0 00-6.57-4.86 28.073 28.073 0 00-10.755-1.755H143.1zm122.13-34.65a22.78 22.78 0 00-1.98-5.13 14.192 14.192 0 00-3.24-4.05 14.4 14.4 0 00-4.635-2.655 18.362 18.362 0 00-6.165-.945 18.012 18.012 0 00-8.865 2.07 17.382 17.382 0 00-6.075 5.535 24.97 24.97 0 00-3.47 7.875 36.562 36.562 0 000 18 24.97 24.97 0 003.465 7.875 17.382 17.382 0 006.075 5.535 18.012 18.012 0 008.865 2.07 15.99 15.99 0 006.66-1.305 14.827 14.827 0 004.95-3.6 16.94 16.94 0 003.24-5.355 25.641 25.641 0 001.53-6.57h10.98a30.457 30.457 0 01-2.465 10.53 25.822 25.822 0 01-5.715 8.235 25.251 25.251 0 01-8.46 5.355 29.314 29.314 0 01-10.71 1.89 30.3 30.3 0 01-12.915-2.655 28.409 28.409 0 01-9.675-7.245 32.411 32.411 0 01-6.075-10.71 41.04 41.04 0 010-26.01 32.411 32.411 0 016.07-10.71 28.917 28.917 0 019.675-7.29 29.874 29.874 0 0112.915-2.7 34.03 34.03 0 0110.17 1.485 26.293 26.293 0 018.415 4.32 22.436 22.436 0 015.9 6.885 23.952 23.952 0 012.79 9.27zm20.88-20.43h11.25v37.44q0 3.24.315 6.57a15.009 15.009 0 001.8 5.985 11.476 11.476 0 004.5 4.365q3.015 1.71 8.505 1.71t8.505-1.71a11.475 11.475 0 004.5-4.365 15.009 15.009 0 001.8-5.985q.315-3.33.315-6.57V30.74h11.25v41.13a28.25 28.25 0 01-1.89 10.8 20.787 20.787 0 01-5.355 7.695A22.338 22.338 0 01323.28 95a38.883 38.883 0 01-21.6 0 22.338 22.338 0 01-8.325-4.635A20.787 20.787 0 01288 82.67a28.249 28.249 0 01-1.89-10.8zm65.7 0h11.25v54.54h32.67V95h-43.92zm37.26 0h52.02v9.72h-20.43V95h-11.25V40.46h-20.34zm58.77 0h11.25v37.44q0 3.24.315 6.57a15.009 15.009 0 001.8 5.985 11.475 11.475 0 004.5 4.365q3.015 1.71 8.5 1.71t8.505-1.71a11.475 11.475 0 004.5-4.365 15.009 15.009 0 001.8-5.985q.315-3.33.315-6.57V30.74h11.25v41.13a28.25 28.25 0 01-1.89 10.8 20.787 20.787 0 01-5.355 7.695A22.338 22.338 0 01485.01 95a38.883 38.883 0 01-21.6 0 22.338 22.338 0 01-8.325-4.635 20.787 20.787 0 01-5.355-7.695 28.249 28.249 0 01-1.89-10.8zm65.7 0h30.69q10.62 0 15.93 4.59t5.31 12.78a18.659 18.659 0 01-1.35 7.605 16.6 16.6 0 01-3.15 4.86 12.3 12.3 0 01-3.555 2.655q-1.755.81-2.565 1.08v.18a11.479 11.479 0 013.1.9 9.163 9.163 0 013.1 2.295 12.5 12.5 0 012.385 4.1 18.1 18.1 0 01.945 6.3 57.011 57.011 0 00.855 10.305q.865 4.63 2.665 6.61h-12.06a10.5 10.5 0 01-1.485-4.59q-.225-2.52-.225-4.86a46.33 46.33 0 00-.54-7.605 13.26 13.26 0 00-1.98-5.31 8.378 8.378 0 00-3.91-3.105 17.275 17.275 0 00-6.345-.99H524.79V95h-11.25zm11.25 29.25h18.45q5.4 0 8.19-2.565t2.79-7.695a11.9 11.9 0 00-.9-4.995 7.276 7.276 0 00-2.475-3.015 9.1 9.1 0 00-3.6-1.44 23.869 23.869 0 00-4.185-.36h-18.27zm52.11-29.25h46.26v9.72h-35.01v16.83h32.4v9.18h-32.4v18.81h35.64V95H576.9z" transform="translate(142 519)" fill="#0f0f0f"/></g></g></svg>