<svg xmlns="http://www.w3.org/2000/svg" width="8.228" height="263.637"><g id="scroll-bar" transform="translate(-45.813 -638.363)"><g id="グループ_524" data-name="グループ 524" transform="translate(0 389)" fill="none" stroke-width="1"><path id="線_274" data-name="線 274" transform="translate(50 313)" stroke="#fff" d="M0 0v200"/><path id="線_275" data-name="線 275" transform="translate(50 313)" stroke="#0f0f0f" d="M0 0v59"/></g><path id="パス_308" data-name="パス 308" d="M1.738-2.618a1.758 1.758 0 00.154.77 1.391 1.391 0 00.429.522 1.829 1.829 0 00.633.3 3.058 3.058 0 00.775.094 2.49 2.49 0 00.77-.1 1.558 1.558 0 00.517-.27.974.974 0 00.286-.38 1.136 1.136 0 00.088-.435.939.939 0 00-.2-.665 1.162 1.162 0 00-.445-.3 9.316 9.316 0 00-.974-.292Q3.212-3.52 2.4-3.74a2.936 2.936 0 01-.842-.346 2.007 2.007 0 01-.533-.479 1.68 1.68 0 01-.28-.561 2.25 2.25 0 01-.085-.605A2.044 2.044 0 01.908-6.76a2.2 2.2 0 01.655-.72 2.878 2.878 0 01.923-.42 4.049 4.049 0 011.045-.138 4.109 4.109 0 011.16.16 2.862 2.862 0 01.957.478 2.344 2.344 0 01.655.786 2.325 2.325 0 01.242 1.083H5.17a1.325 1.325 0 00-.517-1.072 2.053 2.053 0 00-1.177-.314 2.575 2.575 0 00-.5.05 1.573 1.573 0 00-.462.165 1.014 1.014 0 00-.346.313.847.847 0 00-.138.495.843.843 0 00.258.655 1.674 1.674 0 00.677.358l.346.093.677.181.732.193q.357.094.511.138a2.292 2.292 0 01.671.33 2.116 2.116 0 01.478.478 1.976 1.976 0 01.286.577 2.111 2.111 0 01.094.616A2.222 2.222 0 016.5-1.15a2.287 2.287 0 01-.709.765 3.084 3.084 0 01-1 .434 4.788 4.788 0 01-1.15.138A4.708 4.708 0 012.376.022a2.961 2.961 0 01-1.034-.506 2.476 2.476 0 01-.7-.875 2.911 2.911 0 01-.275-1.26zm11.528-2.739a2.784 2.784 0 00-.242-.627 1.735 1.735 0 00-.4-.495 1.759 1.759 0 00-.566-.325 2.244 2.244 0 00-.754-.115 2.2 2.2 0 00-1.083.253 2.124 2.124 0 00-.742.676 3.052 3.052 0 00-.424.963 4.433 4.433 0 00-.138 1.1 4.433 4.433 0 00.138 1.1 3.052 3.052 0 00.424.962 2.125 2.125 0 00.742.676 2.2 2.2 0 001.083.253 1.954 1.954 0 00.814-.16 1.812 1.812 0 00.6-.44 2.07 2.07 0 00.4-.655 3.134 3.134 0 00.187-.8h1.342a3.722 3.722 0 01-.3 1.287 3.156 3.156 0 01-.7 1.007 3.086 3.086 0 01-1.034.655 3.583 3.583 0 01-1.309.231 3.7 3.7 0 01-1.575-.327 3.472 3.472 0 01-1.182-.885A3.961 3.961 0 017.8-2.332a4.849 4.849 0 01-.259-1.6A4.815 4.815 0 017.8-5.511a3.961 3.961 0 01.747-1.309 3.534 3.534 0 011.182-.891 3.651 3.651 0 011.578-.33 4.159 4.159 0 011.243.182 3.214 3.214 0 011.029.528 2.742 2.742 0 01.72.841 2.928 2.928 0 01.341 1.133zm2.64-2.5h3.751a2.91 2.91 0 011.947.561 1.955 1.955 0 01.649 1.562 2.281 2.281 0 01-.165.93 2.029 2.029 0 01-.385.594 1.5 1.5 0 01-.434.325q-.214.1-.313.132v.022a1.4 1.4 0 01.379.11 1.12 1.12 0 01.379.28 1.528 1.528 0 01.292.5 2.212 2.212 0 01.115.77 6.968 6.968 0 00.1 1.259A1.657 1.657 0 0022.55 0h-1.474a1.283 1.283 0 01-.181-.561q-.028-.308-.028-.594a5.662 5.662 0 00-.066-.93 1.621 1.621 0 00-.242-.649 1.024 1.024 0 00-.479-.379 2.111 2.111 0 00-.775-.121h-2.024V0h-1.375zm1.375 3.575h2.255a1.431 1.431 0 001-.313 1.216 1.216 0 00.341-.941 1.455 1.455 0 00-.11-.61.889.889 0 00-.3-.369 1.112 1.112 0 00-.44-.176 2.917 2.917 0 00-.511-.044h-2.235zm9.713-2.64a2.2 2.2 0 00-1.083.253 2.124 2.124 0 00-.743.676 3.052 3.052 0 00-.424.963 4.433 4.433 0 00-.138 1.1 4.433 4.433 0 00.138 1.1 3.052 3.052 0 00.424.962 2.124 2.124 0 00.743.676 2.2 2.2 0 001.083.253 2.2 2.2 0 001.083-.253 2.125 2.125 0 00.743-.676 3.052 3.052 0 00.424-.962 4.433 4.433 0 00.137-1.1 4.433 4.433 0 00-.137-1.1 3.052 3.052 0 00-.424-.963 2.125 2.125 0 00-.743-.676 2.2 2.2 0 00-1.083-.25zm0-1.122a3.651 3.651 0 011.578.33 3.534 3.534 0 011.183.891 3.961 3.961 0 01.745 1.312 4.815 4.815 0 01.258 1.584 4.849 4.849 0 01-.258 1.6 3.961 3.961 0 01-.743 1.309 3.472 3.472 0 01-1.183.885 3.7 3.7 0 01-1.578.325 3.7 3.7 0 01-1.579-.325 3.472 3.472 0 01-1.182-.885 3.961 3.961 0 01-.743-1.309 4.849 4.849 0 01-.259-1.6 4.815 4.815 0 01.259-1.584 3.961 3.961 0 01.743-1.309 3.534 3.534 0 011.182-.891 3.651 3.651 0 011.577-.33zm5.016.187h1.375v6.666h3.993V0H32.01zm6.314 0H39.7v6.666h3.993V0h-5.369z" transform="rotate(90 -296 342)" fill="#7e807c"/></g></svg>