<svg xmlns="http://www.w3.org/2000/svg" xmlns:xlink="http://www.w3.org/1999/xlink" width="840" height="240" viewBox="0 0 840 240">
  <defs>
    <clipPath id="clip-path">
      <rect id="長方形_2421" data-name="長方形 2421" width="654" height="240" transform="translate(299 397)" fill="#fff"/>
    </clipPath>
    <clipPath id="clip-path-2">
      <path id="パス_305" data-name="パス 305" d="M0,0H186V190H0Z" transform="translate(113 431)" fill="#fff"/>
    </clipPath>
  </defs>
  <g id="kv_text" transform="translate(-113 -347)">
    <g id="マスクグループ_44" data-name="マスクグループ 44" transform="translate(0 -50)" clip-path="url(#clip-path)">
      <path id="パス_307" data-name="パス 307" d="M6.84-64.26H51.21v9.72H18.09v16.83H47.16v9.18H18.09V0H6.84Zm52.65,0H70.74v37.44q0,3.24.315,6.57a15.009,15.009,0,0,0,1.8,5.985,11.475,11.475,0,0,0,4.5,4.365Q80.37-8.19,85.86-8.19t8.5-1.71a11.475,11.475,0,0,0,4.5-4.365,15.009,15.009,0,0,0,1.8-5.985q.315-3.33.315-6.57V-64.26h11.25v41.13a28.249,28.249,0,0,1-1.89,10.8,20.787,20.787,0,0,1-5.355,7.695A22.338,22.338,0,0,1,96.66,0a35.855,35.855,0,0,1-10.8,1.53A35.855,35.855,0,0,1,75.06,0a22.338,22.338,0,0,1-8.325-4.635A20.787,20.787,0,0,1,61.38-12.33a28.25,28.25,0,0,1-1.89-10.8Zm59.58,0h52.02v9.72H150.66V0H139.41V-54.54H119.07Zm58.77,0h11.25v37.44q0,3.24.315,6.57a15.009,15.009,0,0,0,1.8,5.985,11.475,11.475,0,0,0,4.5,4.365q3.015,1.71,8.505,1.71t8.5-1.71a11.475,11.475,0,0,0,4.5-4.365,15.009,15.009,0,0,0,1.8-5.985q.315-3.33.315-6.57V-64.26h11.25v41.13a28.25,28.25,0,0,1-1.89,10.8,20.787,20.787,0,0,1-5.355,7.695A22.338,22.338,0,0,1,215.01,0a35.855,35.855,0,0,1-10.8,1.53A35.855,35.855,0,0,1,193.41,0a22.338,22.338,0,0,1-8.325-4.635,20.787,20.787,0,0,1-5.355-7.695,28.25,28.25,0,0,1-1.89-10.8Zm65.7,0h30.69q10.62,0,15.93,4.59t5.31,12.78a18.66,18.66,0,0,1-1.35,7.605,16.6,16.6,0,0,1-3.15,4.86,12.3,12.3,0,0,1-3.555,2.655q-1.755.81-2.565,1.08v.18a11.479,11.479,0,0,1,3.1.9,9.162,9.162,0,0,1,3.105,2.3,12.5,12.5,0,0,1,2.385,4.1,18.1,18.1,0,0,1,.945,6.3,57.011,57.011,0,0,0,.855,10.305Q296.1-1.98,297.9,0H285.84a10.5,10.5,0,0,1-1.485-4.59q-.225-2.52-.225-4.86a46.326,46.326,0,0,0-.54-7.605,13.26,13.26,0,0,0-1.98-5.31,8.378,8.378,0,0,0-3.915-3.1,17.275,17.275,0,0,0-6.345-.99H254.79V0H243.54Zm11.25,29.25h18.45q5.4,0,8.19-2.565t2.79-7.695a11.9,11.9,0,0,0-.9-4.995,7.276,7.276,0,0,0-2.475-3.015,9.1,9.1,0,0,0-3.6-1.44,23.87,23.87,0,0,0-4.185-.36H254.79ZM306.9-64.26h46.26v9.72H318.15v16.83h32.4v9.18h-32.4V-9.72h35.64V0H306.9Zm109.08,7.65a18.012,18.012,0,0,0-8.865,2.07,17.382,17.382,0,0,0-6.075,5.535,24.97,24.97,0,0,0-3.465,7.875,36.267,36.267,0,0,0-1.125,9,36.267,36.267,0,0,0,1.125,9,24.97,24.97,0,0,0,3.465,7.875,17.382,17.382,0,0,0,6.075,5.535,18.012,18.012,0,0,0,8.865,2.07,18.012,18.012,0,0,0,8.865-2.07,17.382,17.382,0,0,0,6.075-5.535,24.969,24.969,0,0,0,3.465-7.875,36.267,36.267,0,0,0,1.125-9,36.267,36.267,0,0,0-1.125-9,24.969,24.969,0,0,0-3.465-7.875,17.382,17.382,0,0,0-6.075-5.535A18.012,18.012,0,0,0,415.98-56.61Zm0-9.18a29.874,29.874,0,0,1,12.915,2.7,28.917,28.917,0,0,1,9.675,7.29,32.411,32.411,0,0,1,6.075,10.71,39.4,39.4,0,0,1,2.115,12.96,39.676,39.676,0,0,1-2.115,13.05A32.411,32.411,0,0,1,438.57-8.37a28.409,28.409,0,0,1-9.675,7.245A30.3,30.3,0,0,1,415.98,1.53a30.3,30.3,0,0,1-12.915-2.655A28.409,28.409,0,0,1,393.39-8.37a32.411,32.411,0,0,1-6.075-10.71A39.676,39.676,0,0,1,385.2-32.13a39.4,39.4,0,0,1,2.115-12.96A32.411,32.411,0,0,1,393.39-55.8a28.917,28.917,0,0,1,9.675-7.29A29.874,29.874,0,0,1,415.98-65.79Zm41.04,1.53h44.37v9.72H468.27v16.83h29.07v9.18H468.27V0H457.02Zm72.27,0h52.02v9.72H560.88V0H549.63V-54.54H529.29Zm59.49,0h46.26v9.72H600.03v16.83h32.4v9.18h-32.4V-9.72h35.64V0H588.78Zm73.89,0h11.97L699.39,0H687.33L681.3-17.01H655.65L649.62,0H638.01Zm-3.96,38.7h19.62L668.7-53.19h-.27ZM24.03,30.74H36L60.75,95H48.69L42.66,77.99H17.01L10.98,95H-.63Zm-3.96,38.7H39.69L30.06,41.81h-.27Zm46.35-38.7H78.3l29.34,47.34h.18V30.74h10.71V95H106.65L77.4,47.75h-.27V95H66.42Zm65.43,0h26.64a29.978,29.978,0,0,1,12.78,2.52,23.747,23.747,0,0,1,8.82,6.885,29.419,29.419,0,0,1,5.085,10.215,47.83,47.83,0,0,1,0,25.02A29.419,29.419,0,0,1,180.09,85.6a23.747,23.747,0,0,1-8.82,6.885A29.978,29.978,0,0,1,158.49,95H131.85ZM143.1,85.82h11.07a28.073,28.073,0,0,0,10.755-1.755,15.736,15.736,0,0,0,6.57-4.86,17.545,17.545,0,0,0,3.24-7.29,48.271,48.271,0,0,0,0-18.09,17.545,17.545,0,0,0-3.24-7.29,15.736,15.736,0,0,0-6.57-4.86A28.073,28.073,0,0,0,154.17,39.92H143.1ZM265.23,51.17a22.78,22.78,0,0,0-1.98-5.13,14.192,14.192,0,0,0-3.24-4.05,14.4,14.4,0,0,0-4.635-2.655,18.362,18.362,0,0,0-6.165-.945,18.012,18.012,0,0,0-8.865,2.07,17.382,17.382,0,0,0-6.075,5.535A24.97,24.97,0,0,0,230.8,53.87a36.562,36.562,0,0,0,0,18,24.97,24.97,0,0,0,3.465,7.875,17.382,17.382,0,0,0,6.075,5.535,18.012,18.012,0,0,0,8.865,2.07,15.99,15.99,0,0,0,6.66-1.305,14.827,14.827,0,0,0,4.95-3.6,16.94,16.94,0,0,0,3.24-5.355,25.641,25.641,0,0,0,1.53-6.57h10.98A30.457,30.457,0,0,1,274.1,81.05a25.822,25.822,0,0,1-5.715,8.235,25.251,25.251,0,0,1-8.46,5.355,29.314,29.314,0,0,1-10.71,1.89,30.3,30.3,0,0,1-12.915-2.655,28.409,28.409,0,0,1-9.675-7.245,32.411,32.411,0,0,1-6.075-10.71,41.04,41.04,0,0,1,0-26.01A32.411,32.411,0,0,1,226.62,39.2a28.917,28.917,0,0,1,9.675-7.29,29.874,29.874,0,0,1,12.915-2.7,34.03,34.03,0,0,1,10.17,1.485,26.293,26.293,0,0,1,8.415,4.32,22.436,22.436,0,0,1,5.9,6.885,23.952,23.952,0,0,1,2.79,9.27Zm20.88-20.43h11.25V68.18q0,3.24.315,6.57a15.009,15.009,0,0,0,1.8,5.985,11.476,11.476,0,0,0,4.5,4.365q3.015,1.71,8.505,1.71t8.505-1.71a11.475,11.475,0,0,0,4.5-4.365,15.009,15.009,0,0,0,1.8-5.985q.315-3.33.315-6.57V30.74h11.25V71.87a28.25,28.25,0,0,1-1.89,10.8,20.787,20.787,0,0,1-5.355,7.695A22.338,22.338,0,0,1,323.28,95a38.883,38.883,0,0,1-21.6,0,22.338,22.338,0,0,1-8.325-4.635A20.787,20.787,0,0,1,288,82.67a28.249,28.249,0,0,1-1.89-10.8Zm65.7,0h11.25V85.28h32.67V95H351.81Zm37.26,0h52.02v9.72H420.66V95H409.41V40.46H389.07Zm58.77,0h11.25V68.18q0,3.24.315,6.57a15.009,15.009,0,0,0,1.8,5.985,11.475,11.475,0,0,0,4.5,4.365q3.015,1.71,8.5,1.71t8.505-1.71a11.475,11.475,0,0,0,4.5-4.365,15.009,15.009,0,0,0,1.8-5.985q.315-3.33.315-6.57V30.74h11.25V71.87a28.25,28.25,0,0,1-1.89,10.8,20.787,20.787,0,0,1-5.355,7.695A22.338,22.338,0,0,1,485.01,95a38.883,38.883,0,0,1-21.6,0,22.338,22.338,0,0,1-8.325-4.635,20.787,20.787,0,0,1-5.355-7.695,28.249,28.249,0,0,1-1.89-10.8Zm65.7,0h30.69q10.62,0,15.93,4.59t5.31,12.78a18.659,18.659,0,0,1-1.35,7.605,16.6,16.6,0,0,1-3.15,4.86,12.3,12.3,0,0,1-3.555,2.655q-1.755.81-2.565,1.08v.18a11.479,11.479,0,0,1,3.1.9,9.163,9.163,0,0,1,3.1,2.295,12.5,12.5,0,0,1,2.385,4.1,18.1,18.1,0,0,1,.945,6.3,57.011,57.011,0,0,0,.855,10.305Q566.1,93.02,567.9,95H555.84a10.5,10.5,0,0,1-1.485-4.59q-.225-2.52-.225-4.86a46.33,46.33,0,0,0-.54-7.605,13.26,13.26,0,0,0-1.98-5.31A8.378,8.378,0,0,0,547.7,69.53a17.275,17.275,0,0,0-6.345-.99H524.79V95H513.54Zm11.25,29.25h18.45q5.4,0,8.19-2.565t2.79-7.695a11.9,11.9,0,0,0-.9-4.995,7.276,7.276,0,0,0-2.475-3.015,9.1,9.1,0,0,0-3.6-1.44,23.869,23.869,0,0,0-4.185-.36H524.79ZM576.9,30.74h46.26v9.72H588.15V57.29h32.4v9.18h-32.4V85.28h35.64V95H576.9Z" transform="translate(142 519)" fill="#fff"/>
    </g>
    <g id="マスクグループ_58" data-name="マスクグループ 58" transform="translate(0 -50)" clip-path="url(#clip-path-2)">
      <path id="パス_306" data-name="パス 306" d="M6.84-64.26H51.21v9.72H18.09v16.83H47.16v9.18H18.09V0H6.84Zm52.65,0H70.74v37.44q0,3.24.315,6.57a15.009,15.009,0,0,0,1.8,5.985,11.475,11.475,0,0,0,4.5,4.365Q80.37-8.19,85.86-8.19t8.5-1.71a11.475,11.475,0,0,0,4.5-4.365,15.009,15.009,0,0,0,1.8-5.985q.315-3.33.315-6.57V-64.26h11.25v41.13a28.249,28.249,0,0,1-1.89,10.8,20.787,20.787,0,0,1-5.355,7.695A22.338,22.338,0,0,1,96.66,0a35.855,35.855,0,0,1-10.8,1.53A35.855,35.855,0,0,1,75.06,0a22.338,22.338,0,0,1-8.325-4.635A20.787,20.787,0,0,1,61.38-12.33a28.25,28.25,0,0,1-1.89-10.8Zm59.58,0h52.02v9.72H150.66V0H139.41V-54.54H119.07Zm58.77,0h11.25v37.44q0,3.24.315,6.57a15.009,15.009,0,0,0,1.8,5.985,11.475,11.475,0,0,0,4.5,4.365q3.015,1.71,8.505,1.71t8.5-1.71a11.475,11.475,0,0,0,4.5-4.365,15.009,15.009,0,0,0,1.8-5.985q.315-3.33.315-6.57V-64.26h11.25v41.13a28.25,28.25,0,0,1-1.89,10.8,20.787,20.787,0,0,1-5.355,7.695A22.338,22.338,0,0,1,215.01,0a35.855,35.855,0,0,1-10.8,1.53A35.855,35.855,0,0,1,193.41,0a22.338,22.338,0,0,1-8.325-4.635,20.787,20.787,0,0,1-5.355-7.695,28.25,28.25,0,0,1-1.89-10.8Zm65.7,0h30.69q10.62,0,15.93,4.59t5.31,12.78a18.66,18.66,0,0,1-1.35,7.605,16.6,16.6,0,0,1-3.15,4.86,12.3,12.3,0,0,1-3.555,2.655q-1.755.81-2.565,1.08v.18a11.479,11.479,0,0,1,3.1.9,9.162,9.162,0,0,1,3.105,2.3,12.5,12.5,0,0,1,2.385,4.1,18.1,18.1,0,0,1,.945,6.3,57.011,57.011,0,0,0,.855,10.305Q296.1-1.98,297.9,0H285.84a10.5,10.5,0,0,1-1.485-4.59q-.225-2.52-.225-4.86a46.326,46.326,0,0,0-.54-7.605,13.26,13.26,0,0,0-1.98-5.31,8.378,8.378,0,0,0-3.915-3.1,17.275,17.275,0,0,0-6.345-.99H254.79V0H243.54Zm11.25,29.25h18.45q5.4,0,8.19-2.565t2.79-7.695a11.9,11.9,0,0,0-.9-4.995,7.276,7.276,0,0,0-2.475-3.015,9.1,9.1,0,0,0-3.6-1.44,23.87,23.87,0,0,0-4.185-.36H254.79ZM306.9-64.26h46.26v9.72H318.15v16.83h32.4v9.18h-32.4V-9.72h35.64V0H306.9Zm109.08,7.65a18.012,18.012,0,0,0-8.865,2.07,17.382,17.382,0,0,0-6.075,5.535,24.97,24.97,0,0,0-3.465,7.875,36.267,36.267,0,0,0-1.125,9,36.267,36.267,0,0,0,1.125,9,24.97,24.97,0,0,0,3.465,7.875,17.382,17.382,0,0,0,6.075,5.535,18.012,18.012,0,0,0,8.865,2.07,18.012,18.012,0,0,0,8.865-2.07,17.382,17.382,0,0,0,6.075-5.535,24.969,24.969,0,0,0,3.465-7.875,36.267,36.267,0,0,0,1.125-9,36.267,36.267,0,0,0-1.125-9,24.969,24.969,0,0,0-3.465-7.875,17.382,17.382,0,0,0-6.075-5.535A18.012,18.012,0,0,0,415.98-56.61Zm0-9.18a29.874,29.874,0,0,1,12.915,2.7,28.917,28.917,0,0,1,9.675,7.29,32.411,32.411,0,0,1,6.075,10.71,39.4,39.4,0,0,1,2.115,12.96,39.676,39.676,0,0,1-2.115,13.05A32.411,32.411,0,0,1,438.57-8.37a28.409,28.409,0,0,1-9.675,7.245A30.3,30.3,0,0,1,415.98,1.53a30.3,30.3,0,0,1-12.915-2.655A28.409,28.409,0,0,1,393.39-8.37a32.411,32.411,0,0,1-6.075-10.71A39.676,39.676,0,0,1,385.2-32.13a39.4,39.4,0,0,1,2.115-12.96A32.411,32.411,0,0,1,393.39-55.8a28.917,28.917,0,0,1,9.675-7.29A29.874,29.874,0,0,1,415.98-65.79Zm41.04,1.53h44.37v9.72H468.27v16.83h29.07v9.18H468.27V0H457.02Zm72.27,0h52.02v9.72H560.88V0H549.63V-54.54H529.29Zm59.49,0h46.26v9.72H600.03v16.83h32.4v9.18h-32.4V-9.72h35.64V0H588.78Zm73.89,0h11.97L699.39,0H687.33L681.3-17.01H655.65L649.62,0H638.01Zm-3.96,38.7h19.62L668.7-53.19h-.27ZM24.03,30.74H36L60.75,95H48.69L42.66,77.99H17.01L10.98,95H-.63Zm-3.96,38.7H39.69L30.06,41.81h-.27Zm46.35-38.7H78.3l29.34,47.34h.18V30.74h10.71V95H106.65L77.4,47.75h-.27V95H66.42Zm65.43,0h26.64a29.978,29.978,0,0,1,12.78,2.52,23.747,23.747,0,0,1,8.82,6.885,29.419,29.419,0,0,1,5.085,10.215,47.83,47.83,0,0,1,0,25.02A29.419,29.419,0,0,1,180.09,85.6a23.747,23.747,0,0,1-8.82,6.885A29.978,29.978,0,0,1,158.49,95H131.85ZM143.1,85.82h11.07a28.073,28.073,0,0,0,10.755-1.755,15.736,15.736,0,0,0,6.57-4.86,17.545,17.545,0,0,0,3.24-7.29,48.271,48.271,0,0,0,0-18.09,17.545,17.545,0,0,0-3.24-7.29,15.736,15.736,0,0,0-6.57-4.86A28.073,28.073,0,0,0,154.17,39.92H143.1ZM265.23,51.17a22.78,22.78,0,0,0-1.98-5.13,14.192,14.192,0,0,0-3.24-4.05,14.4,14.4,0,0,0-4.635-2.655,18.362,18.362,0,0,0-6.165-.945,18.012,18.012,0,0,0-8.865,2.07,17.382,17.382,0,0,0-6.075,5.535A24.97,24.97,0,0,0,230.8,53.87a36.562,36.562,0,0,0,0,18,24.97,24.97,0,0,0,3.465,7.875,17.382,17.382,0,0,0,6.075,5.535,18.012,18.012,0,0,0,8.865,2.07,15.99,15.99,0,0,0,6.66-1.305,14.827,14.827,0,0,0,4.95-3.6,16.94,16.94,0,0,0,3.24-5.355,25.641,25.641,0,0,0,1.53-6.57h10.98A30.457,30.457,0,0,1,274.1,81.05a25.822,25.822,0,0,1-5.715,8.235,25.251,25.251,0,0,1-8.46,5.355,29.314,29.314,0,0,1-10.71,1.89,30.3,30.3,0,0,1-12.915-2.655,28.409,28.409,0,0,1-9.675-7.245,32.411,32.411,0,0,1-6.075-10.71,41.04,41.04,0,0,1,0-26.01A32.411,32.411,0,0,1,226.62,39.2a28.917,28.917,0,0,1,9.675-7.29,29.874,29.874,0,0,1,12.915-2.7,34.03,34.03,0,0,1,10.17,1.485,26.293,26.293,0,0,1,8.415,4.32,22.436,22.436,0,0,1,5.9,6.885,23.952,23.952,0,0,1,2.79,9.27Zm20.88-20.43h11.25V68.18q0,3.24.315,6.57a15.009,15.009,0,0,0,1.8,5.985,11.476,11.476,0,0,0,4.5,4.365q3.015,1.71,8.505,1.71t8.505-1.71a11.475,11.475,0,0,0,4.5-4.365,15.009,15.009,0,0,0,1.8-5.985q.315-3.33.315-6.57V30.74h11.25V71.87a28.25,28.25,0,0,1-1.89,10.8,20.787,20.787,0,0,1-5.355,7.695A22.338,22.338,0,0,1,323.28,95a38.883,38.883,0,0,1-21.6,0,22.338,22.338,0,0,1-8.325-4.635A20.787,20.787,0,0,1,288,82.67a28.249,28.249,0,0,1-1.89-10.8Zm65.7,0h11.25V85.28h32.67V95H351.81Zm37.26,0h52.02v9.72H420.66V95H409.41V40.46H389.07Zm58.77,0h11.25V68.18q0,3.24.315,6.57a15.009,15.009,0,0,0,1.8,5.985,11.475,11.475,0,0,0,4.5,4.365q3.015,1.71,8.5,1.71t8.505-1.71a11.475,11.475,0,0,0,4.5-4.365,15.009,15.009,0,0,0,1.8-5.985q.315-3.33.315-6.57V30.74h11.25V71.87a28.25,28.25,0,0,1-1.89,10.8,20.787,20.787,0,0,1-5.355,7.695A22.338,22.338,0,0,1,485.01,95a38.883,38.883,0,0,1-21.6,0,22.338,22.338,0,0,1-8.325-4.635,20.787,20.787,0,0,1-5.355-7.695,28.249,28.249,0,0,1-1.89-10.8Zm65.7,0h30.69q10.62,0,15.93,4.59t5.31,12.78a18.659,18.659,0,0,1-1.35,7.605,16.6,16.6,0,0,1-3.15,4.86,12.3,12.3,0,0,1-3.555,2.655q-1.755.81-2.565,1.08v.18a11.479,11.479,0,0,1,3.1.9,9.163,9.163,0,0,1,3.1,2.295,12.5,12.5,0,0,1,2.385,4.1,18.1,18.1,0,0,1,.945,6.3,57.011,57.011,0,0,0,.855,10.305Q566.1,93.02,567.9,95H555.84a10.5,10.5,0,0,1-1.485-4.59q-.225-2.52-.225-4.86a46.33,46.33,0,0,0-.54-7.605,13.26,13.26,0,0,0-1.98-5.31A8.378,8.378,0,0,0,547.7,69.53a17.275,17.275,0,0,0-6.345-.99H524.79V95H513.54Zm11.25,29.25h18.45q5.4,0,8.19-2.565t2.79-7.695a11.9,11.9,0,0,0-.9-4.995,7.276,7.276,0,0,0-2.475-3.015,9.1,9.1,0,0,0-3.6-1.44,23.869,23.869,0,0,0-4.185-.36H524.79ZM576.9,30.74h46.26v9.72H588.15V57.29h32.4v9.18h-32.4V85.28h35.64V95H576.9Z" transform="translate(142 519)" fill="#0f0f0f"/>
    </g>
  </g>
</svg>
